<mxfile host="app.diagrams.net" modified="2022-12-15T10:06:09.121Z" agent="5.0 (Windows NT 10.0; Win64; x64) AppleWebKit/537.36 (KHTML, like Gecko) Chrome/108.0.0.0 Safari/537.36" version="20.6.0" etag="4_VCvDf4qy6xOhFkH1gu" type="github">
  <diagram id="eByDo22AMLQ4qeioQTBj" name="第 1 页">
    <mxGraphModel dx="3015" dy="2340" grid="1" gridSize="9" guides="1" tooltips="1" connect="1" arrows="1" fold="1" page="1" pageScale="1" pageWidth="827" pageHeight="1169" background="#FFFFFF" math="1" shadow="0">
      <root>
        <mxCell id="0" />
        <mxCell id="1" parent="0" />
        <mxCell id="A4r7sy5Z2c_fAZv7HFqx-11" value="&lt;font style=&quot;font-size: 20px;&quot; face=&quot;Times New Roman&quot;&gt;C&lt;/font&gt;" style="ellipse;whiteSpace=wrap;html=1;aspect=fixed;strokeColor=#1453FF;strokeWidth=2;fillColor=#DFFFCC;fontFamily=Times New Roman;fontSize=20;" vertex="1" parent="1">
          <mxGeometry x="764" y="335" width="50" height="50" as="geometry" />
        </mxCell>
        <mxCell id="A4r7sy5Z2c_fAZv7HFqx-43" value="\(\sqrt{3×-1}+(1+x)^2\)" style="text;html=1;align=center;verticalAlign=middle;resizable=0;points=[];autosize=1;strokeColor=none;fillColor=none;fontSize=15;fontFamily=Times New Roman;fontColor=#330000;strokeWidth=2;" vertex="1" parent="1">
          <mxGeometry x="126" y="-621" width="170" height="30" as="geometry" />
        </mxCell>
        <mxCell id="A4r7sy5Z2c_fAZv7HFqx-57" value="&lt;font style=&quot;font-size: 27px;&quot;&gt;GCN&lt;/font&gt;" style="rounded=1;whiteSpace=wrap;html=1;strokeColor=#330000;fillColor=#009149;strokeWidth=2;fontFamily=Times New Roman;" vertex="1" parent="1">
          <mxGeometry x="306" y="-513" width="70" height="42" as="geometry" />
        </mxCell>
        <mxCell id="A4r7sy5Z2c_fAZv7HFqx-60" value="" style="endArrow=classic;html=1;rounded=0;fontFamily=Times New Roman;fontSize=23;fontColor=#330000;" edge="1" parent="1">
          <mxGeometry width="50" height="50" relative="1" as="geometry">
            <mxPoint x="153" y="-463" as="sourcePoint" />
            <mxPoint x="203" y="-513" as="targetPoint" />
          </mxGeometry>
        </mxCell>
        <mxCell id="A4r7sy5Z2c_fAZv7HFqx-69" value="" style="endArrow=classic;html=1;rounded=0;fontFamily=Times New Roman;fontSize=23;fontColor=#330000;" edge="1" parent="1">
          <mxGeometry width="50" height="50" relative="1" as="geometry">
            <mxPoint x="186" y="-436" as="sourcePoint" />
            <mxPoint x="236" y="-486" as="targetPoint" />
          </mxGeometry>
        </mxCell>
        <mxCell id="A4r7sy5Z2c_fAZv7HFqx-89" value="" style="group" vertex="1" connectable="0" parent="1">
          <mxGeometry x="-639" y="-342.00028419932255" width="1305" height="234.00028419932255" as="geometry" />
        </mxCell>
        <mxCell id="A4r7sy5Z2c_fAZv7HFqx-88" value="" style="endArrow=classic;html=1;rounded=0;fontFamily=Times New Roman;fontSize=12;fontColor=#330000;entryX=0;entryY=0.5;entryDx=0;entryDy=0;" edge="1" parent="A4r7sy5Z2c_fAZv7HFqx-89" target="A4r7sy5Z2c_fAZv7HFqx-75">
          <mxGeometry width="50" height="50" relative="1" as="geometry">
            <mxPoint x="936" y="170.00028419932255" as="sourcePoint" />
            <mxPoint x="1049" y="189.00028419932255" as="targetPoint" />
          </mxGeometry>
        </mxCell>
        <mxCell id="A4r7sy5Z2c_fAZv7HFqx-79" value="" style="rounded=1;whiteSpace=wrap;html=1;strokeColor=#00CC00;strokeWidth=2;fontFamily=Times New Roman;fontSize=12;fontColor=#330000;fillColor=none;" vertex="1" parent="A4r7sy5Z2c_fAZv7HFqx-89">
          <mxGeometry x="612" y="17.00028419932255" width="513" height="217" as="geometry" />
        </mxCell>
        <mxCell id="A4r7sy5Z2c_fAZv7HFqx-54" value="" style="rounded=1;whiteSpace=wrap;html=1;strokeColor=#FF8000;strokeWidth=2;fontFamily=Times New Roman;fontSize=12;fontColor=#330000;fillColor=none;" vertex="1" parent="A4r7sy5Z2c_fAZv7HFqx-89">
          <mxGeometry x="135" y="17.01028419932254" width="433.5" height="216.99" as="geometry" />
        </mxCell>
        <mxCell id="A4r7sy5Z2c_fAZv7HFqx-45" value="" style="endArrow=classic;html=1;rounded=0;fontFamily=Times New Roman;fontSize=12;fontColor=#330000;entryX=0;entryY=0.5;entryDx=0;entryDy=0;" edge="1" parent="A4r7sy5Z2c_fAZv7HFqx-89" target="A4r7sy5Z2c_fAZv7HFqx-83">
          <mxGeometry width="50" height="50" relative="1" as="geometry">
            <mxPoint x="1098" y="169.02028419932253" as="sourcePoint" />
            <mxPoint x="1217" y="170.01028419932254" as="targetPoint" />
          </mxGeometry>
        </mxCell>
        <mxCell id="A4r7sy5Z2c_fAZv7HFqx-1" value="&lt;font style=&quot;font-size: 27px;&quot;&gt;DR&lt;/font&gt;" style="rounded=1;whiteSpace=wrap;html=1;strokeColor=#330000;fillColor=#C4C447;strokeWidth=2;fontFamily=Times New Roman;" vertex="1" parent="A4r7sy5Z2c_fAZv7HFqx-89">
          <mxGeometry x="70" y="140.01028419932257" width="60" height="60" as="geometry" />
        </mxCell>
        <mxCell id="A4r7sy5Z2c_fAZv7HFqx-6" value="" style="endArrow=classic;html=1;rounded=0;" edge="1" parent="A4r7sy5Z2c_fAZv7HFqx-89">
          <mxGeometry width="50" height="50" relative="1" as="geometry">
            <mxPoint y="169.72028419932258" as="sourcePoint" />
            <mxPoint x="70" y="169.72028419932258" as="targetPoint" />
          </mxGeometry>
        </mxCell>
        <mxCell id="A4r7sy5Z2c_fAZv7HFqx-7" value="&lt;font face=&quot;Times New Roman&quot;&gt;Position&lt;/font&gt;" style="text;html=1;align=center;verticalAlign=middle;resizable=0;points=[];autosize=1;strokeColor=none;fillColor=none;strokeWidth=3;" vertex="1" parent="A4r7sy5Z2c_fAZv7HFqx-89">
          <mxGeometry y="140.01028419932257" width="60" height="30" as="geometry" />
        </mxCell>
        <mxCell id="A4r7sy5Z2c_fAZv7HFqx-8" value="&lt;font face=&quot;Times New Roman&quot;&gt;Velocity&lt;/font&gt;" style="text;html=1;align=center;verticalAlign=middle;resizable=0;points=[];autosize=1;strokeColor=none;fillColor=none;strokeWidth=3;" vertex="1" parent="A4r7sy5Z2c_fAZv7HFqx-89">
          <mxGeometry y="170.01028419932257" width="60" height="30" as="geometry" />
        </mxCell>
        <mxCell id="A4r7sy5Z2c_fAZv7HFqx-2" value="&lt;font style=&quot;font-size: 20px;&quot; face=&quot;Times New Roman&quot;&gt;C&lt;/font&gt;" style="ellipse;whiteSpace=wrap;html=1;aspect=fixed;strokeColor=#330000;strokeWidth=2;fillColor=#FFCCE6;" vertex="1" parent="A4r7sy5Z2c_fAZv7HFqx-89">
          <mxGeometry x="208" y="153.01028419932257" width="34" height="34" as="geometry" />
        </mxCell>
        <mxCell id="A4r7sy5Z2c_fAZv7HFqx-9" value="" style="endArrow=classic;html=1;rounded=0;" edge="1" parent="A4r7sy5Z2c_fAZv7HFqx-89">
          <mxGeometry width="50" height="50" relative="1" as="geometry">
            <mxPoint x="130" y="170.0102841993226" as="sourcePoint" />
            <mxPoint x="207" y="170.01028419932257" as="targetPoint" />
          </mxGeometry>
        </mxCell>
        <mxCell id="A4r7sy5Z2c_fAZv7HFqx-10" value="&lt;font face=&quot;Times New Roman&quot;&gt;T × J × C&lt;br&gt;&amp;nbsp;&lt;/font&gt;" style="text;html=1;align=center;verticalAlign=middle;resizable=0;points=[];autosize=1;strokeColor=none;fillColor=none;strokeWidth=3;" vertex="1" parent="A4r7sy5Z2c_fAZv7HFqx-89">
          <mxGeometry x="130" y="149.01028419932257" width="70" height="40" as="geometry" />
        </mxCell>
        <mxCell id="A4r7sy5Z2c_fAZv7HFqx-14" value="" style="endArrow=classic;html=1;rounded=0;fontFamily=Times New Roman;fontSize=20;startArrow=none;exitX=1;exitY=0.5;exitDx=0;exitDy=0;" edge="1" parent="A4r7sy5Z2c_fAZv7HFqx-89" source="A4r7sy5Z2c_fAZv7HFqx-2">
          <mxGeometry width="50" height="50" relative="1" as="geometry">
            <mxPoint x="250" y="170.01028419932257" as="sourcePoint" />
            <mxPoint x="310" y="170.01028419932257" as="targetPoint" />
          </mxGeometry>
        </mxCell>
        <mxCell id="A4r7sy5Z2c_fAZv7HFqx-15" value="&lt;font face=&quot;Times New Roman&quot;&gt;T × J × 2C&lt;br&gt;&amp;nbsp;&lt;/font&gt;" style="text;html=1;align=center;verticalAlign=middle;resizable=0;points=[];autosize=1;strokeColor=none;fillColor=none;strokeWidth=3;" vertex="1" parent="A4r7sy5Z2c_fAZv7HFqx-89">
          <mxGeometry x="240" y="165.01028419932257" width="70" height="40" as="geometry" />
        </mxCell>
        <mxCell id="A4r7sy5Z2c_fAZv7HFqx-19" value="&lt;font color=&quot;#ff3333&quot;&gt;Joint Type&lt;/font&gt;:&amp;nbsp;&lt;br&gt;head, ..., foot" style="rounded=0;whiteSpace=wrap;html=1;strokeColor=#330000;strokeWidth=2;fontFamily=Times New Roman;fontSize=12;fillColor=#FFFFFF;" vertex="1" parent="A4r7sy5Z2c_fAZv7HFqx-89">
          <mxGeometry x="185" y="70.01028419932254" width="80" height="40" as="geometry" />
        </mxCell>
        <mxCell id="A4r7sy5Z2c_fAZv7HFqx-20" value="" style="endArrow=classic;html=1;rounded=0;fontFamily=Times New Roman;fontSize=12;fontColor=#FF3333;exitX=0.5;exitY=1;exitDx=0;exitDy=0;entryX=0.5;entryY=0;entryDx=0;entryDy=0;" edge="1" parent="A4r7sy5Z2c_fAZv7HFqx-89" source="A4r7sy5Z2c_fAZv7HFqx-19" target="A4r7sy5Z2c_fAZv7HFqx-2">
          <mxGeometry width="50" height="50" relative="1" as="geometry">
            <mxPoint x="100" y="120.01028419932257" as="sourcePoint" />
            <mxPoint x="150" y="70.01028419932254" as="targetPoint" />
          </mxGeometry>
        </mxCell>
        <mxCell id="A4r7sy5Z2c_fAZv7HFqx-22" value="&lt;font style=&quot;font-size: 27px;&quot;&gt;GCN&lt;/font&gt;" style="rounded=1;whiteSpace=wrap;html=1;strokeColor=#330000;fillColor=#009149;strokeWidth=2;fontFamily=Times New Roman;" vertex="1" parent="A4r7sy5Z2c_fAZv7HFqx-89">
          <mxGeometry x="310" y="149.01028419932257" width="70" height="42" as="geometry" />
        </mxCell>
        <mxCell id="A4r7sy5Z2c_fAZv7HFqx-27" value="" style="endArrow=classic;html=1;rounded=0;fontFamily=Times New Roman;fontSize=12;fontColor=#FF3333;exitX=1;exitY=0.5;exitDx=0;exitDy=0;entryX=0;entryY=0.5;entryDx=0;entryDy=0;" edge="1" parent="A4r7sy5Z2c_fAZv7HFqx-89" source="A4r7sy5Z2c_fAZv7HFqx-22">
          <mxGeometry width="50" height="50" relative="1" as="geometry">
            <mxPoint x="310" y="280.0102841993226" as="sourcePoint" />
            <mxPoint x="400" y="170.01028419932257" as="targetPoint" />
          </mxGeometry>
        </mxCell>
        <mxCell id="A4r7sy5Z2c_fAZv7HFqx-29" value="" style="endArrow=classic;html=1;rounded=0;fontFamily=Times New Roman;fontSize=12;fontColor=#FF3333;exitX=1;exitY=0.5;exitDx=0;exitDy=0;entryX=0;entryY=0.5;entryDx=0;entryDy=0;" edge="1" parent="A4r7sy5Z2c_fAZv7HFqx-89">
          <mxGeometry width="50" height="50" relative="1" as="geometry">
            <mxPoint x="470" y="170.01028419932257" as="sourcePoint" />
            <mxPoint x="490" y="170.01028419932257" as="targetPoint" />
          </mxGeometry>
        </mxCell>
        <mxCell id="A4r7sy5Z2c_fAZv7HFqx-30" value="&lt;font size=&quot;1&quot; face=&quot;Times New Roman&quot;&gt;&lt;b style=&quot;font-size: 24px;&quot;&gt;×&lt;/b&gt;&lt;/font&gt;" style="ellipse;whiteSpace=wrap;html=1;aspect=fixed;strokeColor=#330000;strokeWidth=2;fillColor=#FFCCE6;" vertex="1" parent="A4r7sy5Z2c_fAZv7HFqx-89">
          <mxGeometry x="419" y="40.01028419932254" width="31" height="31" as="geometry" />
        </mxCell>
        <mxCell id="A4r7sy5Z2c_fAZv7HFqx-36" value="" style="endArrow=classic;html=1;rounded=0;fontFamily=Times New Roman;fontSize=24;fontColor=#FF3333;entryX=0.5;entryY=0;entryDx=0;entryDy=0;" edge="1" parent="A4r7sy5Z2c_fAZv7HFqx-89" target="A4r7sy5Z2c_fAZv7HFqx-22">
          <mxGeometry width="50" height="50" relative="1" as="geometry">
            <mxPoint x="440" y="110.01028419932257" as="sourcePoint" />
            <mxPoint x="280" y="130.01028419932257" as="targetPoint" />
            <Array as="points">
              <mxPoint x="345" y="110.01028419932257" />
            </Array>
          </mxGeometry>
        </mxCell>
        <mxCell id="A4r7sy5Z2c_fAZv7HFqx-37" value="" style="endArrow=classic;html=1;rounded=0;fontFamily=Times New Roman;fontSize=24;fontColor=#FF3333;entryX=0.5;entryY=0;entryDx=0;entryDy=0;" edge="1" parent="A4r7sy5Z2c_fAZv7HFqx-89" target="A4r7sy5Z2c_fAZv7HFqx-51">
          <mxGeometry width="50" height="50" relative="1" as="geometry">
            <mxPoint x="440" y="110.01028419932257" as="sourcePoint" />
            <mxPoint x="525" y="140.01028419932257" as="targetPoint" />
            <Array as="points">
              <mxPoint x="525" y="110.01028419932257" />
            </Array>
          </mxGeometry>
        </mxCell>
        <mxCell id="A4r7sy5Z2c_fAZv7HFqx-38" value="G &lt;font style=&quot;font-size: 14px;&quot;&gt;T × J ×J&lt;/font&gt;" style="text;html=1;align=center;verticalAlign=middle;resizable=0;points=[];autosize=1;strokeColor=none;fillColor=none;fontSize=24;fontFamily=Times New Roman;fontColor=#330000;strokeWidth=2;" vertex="1" parent="A4r7sy5Z2c_fAZv7HFqx-89">
          <mxGeometry x="432" y="80.01028419932254" width="90" height="40" as="geometry" />
        </mxCell>
        <mxCell id="A4r7sy5Z2c_fAZv7HFqx-39" value="" style="endArrow=classic;html=1;rounded=0;fontFamily=Times New Roman;fontSize=14;fontColor=#330000;entryX=0;entryY=0.5;entryDx=0;entryDy=0;" edge="1" parent="A4r7sy5Z2c_fAZv7HFqx-89" target="A4r7sy5Z2c_fAZv7HFqx-40">
          <mxGeometry width="50" height="50" relative="1" as="geometry">
            <mxPoint x="280" y="170.01028419932257" as="sourcePoint" />
            <mxPoint x="280" y="30.010284199322598" as="targetPoint" />
            <Array as="points">
              <mxPoint x="279" y="48.01028419932254" />
            </Array>
          </mxGeometry>
        </mxCell>
        <mxCell id="A4r7sy5Z2c_fAZv7HFqx-42" value="" style="group;fontSize=12;" vertex="1" connectable="0" parent="A4r7sy5Z2c_fAZv7HFqx-89">
          <mxGeometry x="340" y="40.01028419932254" width="48" height="40" as="geometry" />
        </mxCell>
        <mxCell id="A4r7sy5Z2c_fAZv7HFqx-40" value="&lt;font style=&quot;font-size: 11px;&quot;&gt;\(\theta : 1 \times 1\)&lt;/font&gt;" style="rounded=1;whiteSpace=wrap;html=1;strokeColor=#330000;strokeWidth=2;fontFamily=Times New Roman;fontSize=14;fontColor=#330000;fillColor=#CCCCCC;" vertex="1" parent="A4r7sy5Z2c_fAZv7HFqx-42">
          <mxGeometry x="-15" width="48" height="16" as="geometry" />
        </mxCell>
        <mxCell id="A4r7sy5Z2c_fAZv7HFqx-41" value="\(\phi : 1 \times 1\)" style="rounded=1;whiteSpace=wrap;html=1;strokeColor=#330000;strokeWidth=2;fontFamily=Times New Roman;fontSize=12;fontColor=#330000;fillColor=#CCCCCC;" vertex="1" parent="A4r7sy5Z2c_fAZv7HFqx-42">
          <mxGeometry x="-15" y="24" width="48" height="16" as="geometry" />
        </mxCell>
        <mxCell id="A4r7sy5Z2c_fAZv7HFqx-44" value="" style="endArrow=classic;html=1;rounded=0;fontFamily=Times New Roman;fontSize=12;fontColor=#330000;entryX=0;entryY=0.5;entryDx=0;entryDy=0;" edge="1" parent="A4r7sy5Z2c_fAZv7HFqx-89" target="A4r7sy5Z2c_fAZv7HFqx-41">
          <mxGeometry width="50" height="50" relative="1" as="geometry">
            <mxPoint x="279" y="72.01028419932254" as="sourcePoint" />
            <mxPoint x="275" y="125.01028419932257" as="targetPoint" />
          </mxGeometry>
        </mxCell>
        <mxCell id="A4r7sy5Z2c_fAZv7HFqx-46" value="" style="endArrow=classic;html=1;rounded=0;fontFamily=Times New Roman;fontSize=12;fontColor=#330000;entryX=0;entryY=0.5;entryDx=0;entryDy=0;exitX=1;exitY=0.5;exitDx=0;exitDy=0;" edge="1" parent="A4r7sy5Z2c_fAZv7HFqx-89" source="A4r7sy5Z2c_fAZv7HFqx-40" target="A4r7sy5Z2c_fAZv7HFqx-30">
          <mxGeometry width="50" height="50" relative="1" as="geometry">
            <mxPoint x="390" y="49.01028419932254" as="sourcePoint" />
            <mxPoint x="440" y="-0.9897158006774021" as="targetPoint" />
          </mxGeometry>
        </mxCell>
        <mxCell id="A4r7sy5Z2c_fAZv7HFqx-47" value="" style="endArrow=classic;html=1;rounded=0;fontFamily=Times New Roman;fontSize=12;fontColor=#330000;exitX=1;exitY=0.5;exitDx=0;exitDy=0;entryX=0;entryY=0.5;entryDx=0;entryDy=0;" edge="1" parent="A4r7sy5Z2c_fAZv7HFqx-89" source="A4r7sy5Z2c_fAZv7HFqx-41" target="A4r7sy5Z2c_fAZv7HFqx-30">
          <mxGeometry width="50" height="50" relative="1" as="geometry">
            <mxPoint x="306" y="13.010284199322598" as="sourcePoint" />
            <mxPoint x="356" y="-36.98971580067746" as="targetPoint" />
          </mxGeometry>
        </mxCell>
        <mxCell id="A4r7sy5Z2c_fAZv7HFqx-48" value="\(T\times J \times C_2\)" style="text;html=1;align=center;verticalAlign=middle;resizable=0;points=[];autosize=1;strokeColor=none;fillColor=none;fontSize=12;fontFamily=Times New Roman;fontColor=#330000;strokeWidth=2;rotation=15;" vertex="1" parent="A4r7sy5Z2c_fAZv7HFqx-89">
          <mxGeometry x="323" y="17.010284199322598" width="135" height="27" as="geometry" />
        </mxCell>
        <mxCell id="A4r7sy5Z2c_fAZv7HFqx-49" value="\(T\times C_2 \times J\)" style="text;html=1;align=center;verticalAlign=middle;resizable=0;points=[];autosize=1;strokeColor=none;fillColor=none;fontSize=12;fontFamily=Times New Roman;fontColor=#330000;strokeWidth=2;rotation=-15;" vertex="1" parent="A4r7sy5Z2c_fAZv7HFqx-89">
          <mxGeometry x="323" y="71.01028419932254" width="135" height="27" as="geometry" />
        </mxCell>
        <mxCell id="A4r7sy5Z2c_fAZv7HFqx-50" value="&lt;font style=&quot;font-size: 27px;&quot;&gt;GCN&lt;/font&gt;" style="rounded=1;whiteSpace=wrap;html=1;strokeColor=#330000;fillColor=#009149;strokeWidth=2;fontFamily=Times New Roman;" vertex="1" parent="A4r7sy5Z2c_fAZv7HFqx-89">
          <mxGeometry x="399.5" y="148.01028419932257" width="70" height="42" as="geometry" />
        </mxCell>
        <mxCell id="A4r7sy5Z2c_fAZv7HFqx-33" style="edgeStyle=orthogonalEdgeStyle;rounded=0;orthogonalLoop=1;jettySize=auto;html=1;fontFamily=Times New Roman;fontSize=24;fontColor=#FF3333;entryX=0.5;entryY=0;entryDx=0;entryDy=0;" edge="1" parent="A4r7sy5Z2c_fAZv7HFqx-89" source="A4r7sy5Z2c_fAZv7HFqx-30" target="A4r7sy5Z2c_fAZv7HFqx-50">
          <mxGeometry relative="1" as="geometry">
            <mxPoint x="435" y="143.01028419932257" as="targetPoint" />
          </mxGeometry>
        </mxCell>
        <mxCell id="A4r7sy5Z2c_fAZv7HFqx-51" value="&lt;font style=&quot;font-size: 27px;&quot;&gt;GCN&lt;/font&gt;" style="rounded=1;whiteSpace=wrap;html=1;strokeColor=#330000;fillColor=#009149;strokeWidth=2;fontFamily=Times New Roman;" vertex="1" parent="A4r7sy5Z2c_fAZv7HFqx-89">
          <mxGeometry x="490" y="149.01028419932257" width="70" height="42" as="geometry" />
        </mxCell>
        <mxCell id="A4r7sy5Z2c_fAZv7HFqx-55" value="&lt;font style=&quot;font-size: 19px;&quot;&gt;Joint-Level Module&lt;/font&gt;" style="rounded=1;whiteSpace=wrap;html=1;strokeColor=#FF8000;strokeWidth=2;fontFamily=Times New Roman;fontSize=12;fontColor=#330000;fillColor=#FFCCCC;" vertex="1" parent="A4r7sy5Z2c_fAZv7HFqx-89">
          <mxGeometry x="171" y="200.01028419932254" width="172.63" height="32.01" as="geometry" />
        </mxCell>
        <mxCell id="A4r7sy5Z2c_fAZv7HFqx-58" value="&lt;font size=&quot;1&quot; face=&quot;Times New Roman&quot;&gt;&lt;b style=&quot;font-size: 23px;&quot;&gt;+&lt;/b&gt;&lt;/font&gt;" style="ellipse;whiteSpace=wrap;html=1;aspect=fixed;strokeColor=#330000;strokeWidth=2;fillColor=#FFCCE6;" vertex="1" parent="A4r7sy5Z2c_fAZv7HFqx-89">
          <mxGeometry x="648" y="153.01028419932257" width="34" height="34" as="geometry" />
        </mxCell>
        <mxCell id="A4r7sy5Z2c_fAZv7HFqx-59" value="" style="endArrow=classic;html=1;rounded=0;fontFamily=Times New Roman;fontSize=12;fontColor=#330000;exitX=1;exitY=0.5;exitDx=0;exitDy=0;entryX=0;entryY=0.5;entryDx=0;entryDy=0;" edge="1" parent="A4r7sy5Z2c_fAZv7HFqx-89" source="A4r7sy5Z2c_fAZv7HFqx-51" target="A4r7sy5Z2c_fAZv7HFqx-58">
          <mxGeometry width="50" height="50" relative="1" as="geometry">
            <mxPoint x="567" y="140.00028419932255" as="sourcePoint" />
            <mxPoint x="617" y="90.00028419932255" as="targetPoint" />
          </mxGeometry>
        </mxCell>
        <mxCell id="A4r7sy5Z2c_fAZv7HFqx-63" value="&lt;font style=&quot;font-size: 27px;&quot;&gt;SMP&lt;/font&gt;" style="rounded=1;whiteSpace=wrap;html=1;strokeColor=#6c8ebf;fillColor=#dae8fc;strokeWidth=2;fontFamily=Times New Roman;" vertex="1" parent="A4r7sy5Z2c_fAZv7HFqx-89">
          <mxGeometry x="706" y="149.01028419932254" width="70" height="42" as="geometry" />
        </mxCell>
        <mxCell id="A4r7sy5Z2c_fAZv7HFqx-66" style="edgeStyle=orthogonalEdgeStyle;rounded=0;orthogonalLoop=1;jettySize=auto;html=1;entryX=0;entryY=0.5;entryDx=0;entryDy=0;fontFamily=Times New Roman;fontSize=23;fontColor=#330000;" edge="1" parent="A4r7sy5Z2c_fAZv7HFqx-89" source="A4r7sy5Z2c_fAZv7HFqx-58" target="A4r7sy5Z2c_fAZv7HFqx-63">
          <mxGeometry relative="1" as="geometry" />
        </mxCell>
        <mxCell id="A4r7sy5Z2c_fAZv7HFqx-68" style="edgeStyle=orthogonalEdgeStyle;rounded=0;orthogonalLoop=1;jettySize=auto;html=1;entryX=0.5;entryY=0;entryDx=0;entryDy=0;fontFamily=Times New Roman;fontSize=23;fontColor=#330000;" edge="1" parent="A4r7sy5Z2c_fAZv7HFqx-89" source="A4r7sy5Z2c_fAZv7HFqx-67" target="A4r7sy5Z2c_fAZv7HFqx-58">
          <mxGeometry relative="1" as="geometry" />
        </mxCell>
        <mxCell id="A4r7sy5Z2c_fAZv7HFqx-67" value="&lt;font color=&quot;#ff3333&quot;&gt;Frame Index&lt;/font&gt;:&amp;nbsp;&lt;br&gt;1,2, ..., T" style="rounded=0;whiteSpace=wrap;html=1;strokeColor=#330000;strokeWidth=2;fontFamily=Times New Roman;fontSize=12;fillColor=#FFFFFF;" vertex="1" parent="A4r7sy5Z2c_fAZv7HFqx-89">
          <mxGeometry x="625" y="71.01028419932254" width="80" height="40" as="geometry" />
        </mxCell>
        <mxCell id="A4r7sy5Z2c_fAZv7HFqx-70" value="&lt;span style=&quot;font-size: 27px;&quot;&gt;CNN&lt;/span&gt;" style="rounded=1;whiteSpace=wrap;html=1;strokeColor=#330000;fillColor=#009149;strokeWidth=2;fontFamily=Times New Roman;" vertex="1" parent="A4r7sy5Z2c_fAZv7HFqx-89">
          <mxGeometry x="841" y="149.01028419932254" width="70" height="42" as="geometry" />
        </mxCell>
        <mxCell id="A4r7sy5Z2c_fAZv7HFqx-71" style="edgeStyle=orthogonalEdgeStyle;rounded=0;orthogonalLoop=1;jettySize=auto;html=1;exitX=1;exitY=0.5;exitDx=0;exitDy=0;entryX=0;entryY=0.5;entryDx=0;entryDy=0;fontFamily=Times New Roman;fontSize=23;fontColor=#330000;" edge="1" parent="A4r7sy5Z2c_fAZv7HFqx-89" source="A4r7sy5Z2c_fAZv7HFqx-63" target="A4r7sy5Z2c_fAZv7HFqx-70">
          <mxGeometry relative="1" as="geometry" />
        </mxCell>
        <mxCell id="A4r7sy5Z2c_fAZv7HFqx-72" value="&lt;font style=&quot;font-size: 12px;&quot;&gt;\(T\times 1 \times C\)&lt;/font&gt;" style="text;html=1;align=center;verticalAlign=middle;resizable=0;points=[];autosize=1;strokeColor=none;fillColor=none;fontSize=23;fontFamily=Times New Roman;fontColor=#330000;strokeWidth=2;" vertex="1" parent="A4r7sy5Z2c_fAZv7HFqx-89">
          <mxGeometry x="744" y="132.51028419932254" width="126" height="45" as="geometry" />
        </mxCell>
        <mxCell id="A4r7sy5Z2c_fAZv7HFqx-73" value="&lt;span style=&quot;font-size: 27px;&quot;&gt;CNN&lt;/span&gt;" style="rounded=1;whiteSpace=wrap;html=1;strokeColor=#330000;fillColor=#009149;strokeWidth=2;fontFamily=Times New Roman;" vertex="1" parent="A4r7sy5Z2c_fAZv7HFqx-89">
          <mxGeometry x="936" y="149.01028419932254" width="70" height="42" as="geometry" />
        </mxCell>
        <mxCell id="A4r7sy5Z2c_fAZv7HFqx-74" style="edgeStyle=orthogonalEdgeStyle;rounded=0;orthogonalLoop=1;jettySize=auto;html=1;fontFamily=Times New Roman;fontSize=12;fontColor=#330000;" edge="1" parent="A4r7sy5Z2c_fAZv7HFqx-89" source="A4r7sy5Z2c_fAZv7HFqx-70" target="A4r7sy5Z2c_fAZv7HFqx-73">
          <mxGeometry relative="1" as="geometry" />
        </mxCell>
        <mxCell id="A4r7sy5Z2c_fAZv7HFqx-75" value="&lt;font style=&quot;font-size: 27px;&quot;&gt;SMP&lt;/font&gt;" style="rounded=1;whiteSpace=wrap;html=1;strokeColor=#6c8ebf;fillColor=#dae8fc;strokeWidth=2;fontFamily=Times New Roman;" vertex="1" parent="A4r7sy5Z2c_fAZv7HFqx-89">
          <mxGeometry x="1035" y="149.01028419932254" width="70" height="42" as="geometry" />
        </mxCell>
        <mxCell id="A4r7sy5Z2c_fAZv7HFqx-80" value="&lt;font style=&quot;font-size: 19px;&quot;&gt;Frame-Level Module&lt;/font&gt;" style="rounded=1;whiteSpace=wrap;html=1;strokeColor=#82b366;strokeWidth=2;fontFamily=Times New Roman;fontSize=12;fillColor=#d5e8d4;" vertex="1" parent="A4r7sy5Z2c_fAZv7HFqx-89">
          <mxGeometry x="891" y="17.00028419932255" width="190.63" height="46" as="geometry" />
        </mxCell>
        <mxCell id="A4r7sy5Z2c_fAZv7HFqx-81" value="&lt;font style=&quot;font-size: 12px;&quot;&gt;\(1 \times 1\times C_4\)&lt;/font&gt;" style="text;html=1;align=center;verticalAlign=middle;resizable=0;points=[];autosize=1;strokeColor=none;fillColor=none;fontSize=19;fontFamily=Times New Roman;fontColor=#330000;strokeWidth=2;" vertex="1" parent="A4r7sy5Z2c_fAZv7HFqx-89">
          <mxGeometry x="1081.63" y="137.01028419932254" width="135" height="36" as="geometry" />
        </mxCell>
        <mxCell id="A4r7sy5Z2c_fAZv7HFqx-85" style="edgeStyle=orthogonalEdgeStyle;rounded=0;orthogonalLoop=1;jettySize=auto;html=1;fontFamily=Times New Roman;fontSize=12;fontColor=#330000;" edge="1" parent="A4r7sy5Z2c_fAZv7HFqx-89" source="A4r7sy5Z2c_fAZv7HFqx-83">
          <mxGeometry relative="1" as="geometry">
            <mxPoint x="1305" y="170.00028419932255" as="targetPoint" />
          </mxGeometry>
        </mxCell>
        <mxCell id="A4r7sy5Z2c_fAZv7HFqx-83" value="FC-Layer" style="ellipse;whiteSpace=wrap;html=1;strokeColor=#000000;strokeWidth=2;fontFamily=Times New Roman;fontSize=12;fontColor=#330000;fillColor=#FFCCCC;" vertex="1" parent="A4r7sy5Z2c_fAZv7HFqx-89">
          <mxGeometry x="1191" y="130.01028419932254" width="36" height="80" as="geometry" />
        </mxCell>
        <mxCell id="A4r7sy5Z2c_fAZv7HFqx-86" value="Class Label" style="text;html=1;align=center;verticalAlign=middle;resizable=0;points=[];autosize=1;strokeColor=none;fillColor=none;fontSize=12;fontFamily=Times New Roman;fontColor=#330000;strokeWidth=2;" vertex="1" parent="A4r7sy5Z2c_fAZv7HFqx-89">
          <mxGeometry x="1215" y="149.01028419932254" width="81" height="27" as="geometry" />
        </mxCell>
      </root>
    </mxGraphModel>
  </diagram>
</mxfile>
